# Blender 4.1.1
# www.blender.org
mtllib amp_axle_only.mtl
o train_wheels
v 5.007556 0.499166 0.408429
v 4.998372 0.499166 0.380165
v 4.974329 0.499166 0.362696
v 4.944610 0.499166 0.362696
v 4.920566 0.499166 0.380165
v 4.911382 0.499166 0.408429
v 4.920566 0.499166 0.436694
v 4.944610 0.499166 0.454163
v 4.974329 0.499166 0.454163
v 4.998372 0.499166 0.436694
v 5.005203 0.499166 0.393570
v 4.987734 0.499166 0.369526
v 4.959469 0.499166 0.360342
v 4.931204 0.499166 0.369526
v 4.913736 0.499166 0.393570
v 4.913736 0.499166 0.423289
v 4.931204 0.499166 0.447332
v 4.959469 0.499166 0.456516
v 4.987734 0.499166 0.447332
v 5.005203 0.499166 0.423289
v 4.925467 0.499166 0.442432
v 4.937638 0.499166 0.451275
v 4.951947 0.499166 0.455924
v 4.966991 0.499166 0.455924
v 4.981300 0.499166 0.451275
v 4.993472 0.499166 0.442432
v 5.002315 0.499166 0.430260
v 5.006964 0.499166 0.415952
v 5.006964 0.499166 0.400907
v 5.002315 0.499166 0.386598
v 4.993472 0.499166 0.374427
v 4.981300 0.499166 0.365584
v 4.966991 0.499166 0.360934
v 4.951947 0.499166 0.360934
v 4.937638 0.499166 0.365584
v 4.925467 0.499166 0.374427
v 4.916624 0.499166 0.386598
v 4.911974 0.499166 0.400907
v 4.911974 0.499166 0.415952
v 4.916624 0.499166 0.430260
v 5.007556 0.000000 0.408429
v 4.998372 0.000000 0.380165
v 4.974329 0.000000 0.362696
v 4.944610 0.000000 0.362696
v 4.920566 0.000000 0.380165
v 4.911382 0.000000 0.408429
v 4.920566 0.000000 0.436694
v 4.944610 0.000000 0.454163
v 4.974329 0.000000 0.454163
v 4.998372 0.000000 0.436694
v 5.005203 0.000000 0.393570
v 4.987734 0.000000 0.369526
v 4.959469 0.000000 0.360342
v 4.931204 0.000000 0.369526
v 4.913736 0.000000 0.393570
v 4.913736 0.000000 0.423289
v 4.931204 0.000000 0.447332
v 4.959469 0.000000 0.456516
v 4.987734 0.000000 0.447332
v 5.005203 0.000000 0.423289
v 4.925467 0.000000 0.442432
v 4.937638 0.000000 0.451275
v 4.951947 0.000000 0.455924
v 4.966991 0.000000 0.455924
v 4.981300 0.000000 0.451275
v 4.993472 0.000000 0.442432
v 5.002315 0.000000 0.430260
v 5.006964 0.000000 0.415952
v 5.006964 0.000000 0.400907
v 5.002315 0.000000 0.386598
v 4.993472 0.000000 0.374427
v 4.981300 0.000000 0.365584
v 4.966991 0.000000 0.360934
v 4.951947 0.000000 0.360934
v 4.937638 0.000000 0.365584
v 4.925467 0.000000 0.374427
v 4.916624 0.000000 0.386598
v 4.911974 0.000000 0.400907
v 4.911974 0.000000 0.415952
v 4.916624 0.000000 0.430260
v 5.007556 -0.499166 0.408429
v 4.998372 -0.499166 0.380165
v 4.974329 -0.499166 0.362696
v 4.944610 -0.499166 0.362696
v 4.920566 -0.499166 0.380165
v 4.911382 -0.499166 0.408429
v 4.920566 -0.499166 0.436694
v 4.944610 -0.499166 0.454163
v 4.974329 -0.499166 0.454163
v 4.998372 -0.499166 0.436694
v 5.005203 -0.499166 0.393570
v 4.987734 -0.499166 0.369526
v 4.959469 -0.499166 0.360342
v 4.931204 -0.499166 0.369526
v 4.913736 -0.499166 0.393570
v 4.913736 -0.499166 0.423289
v 4.931204 -0.499166 0.447332
v 4.959469 -0.499166 0.456516
v 4.987734 -0.499166 0.447332
v 5.005203 -0.499166 0.423289
v 4.925467 -0.499166 0.442432
v 4.937638 -0.499166 0.451275
v 4.951947 -0.499166 0.455924
v 4.966991 -0.499166 0.455924
v 4.981300 -0.499166 0.451275
v 4.993472 -0.499166 0.442432
v 5.002315 -0.499166 0.430260
v 5.006964 -0.499166 0.415952
v 5.006964 -0.499166 0.400907
v 5.002315 -0.499166 0.386598
v 4.993472 -0.499166 0.374427
v 4.981300 -0.499166 0.365584
v 4.966991 -0.499166 0.360934
v 4.951947 -0.499166 0.360934
v 4.937638 -0.499166 0.365584
v 4.925467 -0.499166 0.374427
v 4.916624 -0.499166 0.386598
v 4.911974 -0.499166 0.400907
v 4.911974 -0.499166 0.415952
v 4.916624 -0.499166 0.430260
vn 0.7239 0.6899 -0.0000
vn 0.5857 0.6899 -0.4255
vn 0.2237 0.6899 -0.6885
vn -0.2237 0.6899 -0.6885
vn -0.5857 0.6899 -0.4255
vn -0.7239 0.6899 -0.0000
vn -0.5857 0.6899 0.4255
vn -0.2237 0.6899 0.6885
vn 0.2237 0.6899 0.6885
vn 0.5857 0.6899 0.4255
vn 0.6885 0.6899 -0.2237
vn 0.4255 0.6899 -0.5857
vn -0.0000 0.6899 -0.7239
vn -0.4255 0.6899 -0.5857
vn -0.6885 0.6899 -0.2237
vn -0.6885 0.6899 0.2237
vn -0.4255 0.6899 0.5857
vn -0.0000 0.6899 0.7239
vn 0.4255 0.6899 0.5857
vn 0.6885 0.6899 0.2237
vn -0.5119 0.6899 0.5119
vn -0.3287 0.6899 0.6450
vn -0.1132 0.6899 0.7150
vn 0.1132 0.6899 0.7150
vn 0.3287 0.6899 0.6450
vn 0.5119 0.6899 0.5119
vn 0.6450 0.6899 0.3287
vn 0.7150 0.6899 0.1132
vn 0.7150 0.6899 -0.1132
vn 0.6450 0.6899 -0.3287
vn 0.5119 0.6899 -0.5119
vn 0.3287 0.6899 -0.6450
vn 0.1132 0.6899 -0.7150
vn -0.1132 0.6899 -0.7150
vn -0.3287 0.6899 -0.6450
vn -0.5119 0.6899 -0.5119
vn -0.6450 0.6899 -0.3287
vn -0.7150 0.6899 -0.1133
vn -0.7150 0.6899 0.1133
vn -0.6450 0.6899 0.3287
vn 1.0000 -0.0000 -0.0000
vn 0.8090 -0.0000 -0.5878
vn 0.3090 -0.0000 -0.9511
vn -0.3090 -0.0000 -0.9511
vn -0.8090 -0.0000 -0.5878
vn -1.0000 -0.0000 -0.0000
vn -0.8090 -0.0000 0.5878
vn -0.3090 -0.0000 0.9511
vn 0.3090 -0.0000 0.9511
vn 0.8090 -0.0000 0.5878
vn 0.9511 -0.0000 -0.3090
vn 0.5878 -0.0000 -0.8090
vn -0.0000 -0.0000 -1.0000
vn -0.5878 -0.0000 -0.8090
vn -0.9511 -0.0000 -0.3090
vn -0.9511 -0.0000 0.3090
vn -0.5878 -0.0000 0.8090
vn -0.0000 -0.0000 1.0000
vn 0.5878 -0.0000 0.8090
vn 0.9511 -0.0000 0.3090
vn -0.7071 -0.0000 0.7071
vn -0.4540 -0.0000 0.8910
vn -0.1564 -0.0000 0.9877
vn 0.1564 -0.0000 0.9877
vn 0.4540 -0.0000 0.8910
vn 0.7071 -0.0000 0.7071
vn 0.8910 -0.0000 0.4540
vn 0.9877 -0.0000 0.1564
vn 0.9877 -0.0000 -0.1564
vn 0.8910 -0.0000 -0.4540
vn 0.7071 -0.0000 -0.7071
vn 0.4540 -0.0000 -0.8910
vn 0.1564 -0.0000 -0.9877
vn -0.1564 -0.0000 -0.9877
vn -0.4540 -0.0000 -0.8910
vn -0.7071 -0.0000 -0.7071
vn -0.8910 -0.0000 -0.4540
vn -0.9877 -0.0000 -0.1564
vn -0.9877 -0.0000 0.1564
vn -0.8910 -0.0000 0.4540
vn 0.7239 -0.6899 -0.0000
vn 0.5857 -0.6899 -0.4255
vn 0.2237 -0.6899 -0.6885
vn -0.2237 -0.6899 -0.6885
vn -0.5857 -0.6899 -0.4255
vn -0.7239 -0.6899 -0.0000
vn -0.5857 -0.6899 0.4255
vn -0.2237 -0.6899 0.6885
vn 0.2237 -0.6899 0.6885
vn 0.5857 -0.6899 0.4255
vn 0.6885 -0.6899 -0.2237
vn 0.4255 -0.6899 -0.5857
vn -0.0000 -0.6899 -0.7239
vn -0.4255 -0.6899 -0.5857
vn -0.6885 -0.6899 -0.2237
vn -0.6885 -0.6899 0.2237
vn -0.4255 -0.6899 0.5857
vn -0.0000 -0.6899 0.7239
vn 0.4255 -0.6899 0.5857
vn 0.6885 -0.6899 0.2237
vn -0.5119 -0.6899 0.5119
vn -0.3287 -0.6899 0.6450
vn -0.1132 -0.6899 0.7150
vn 0.1132 -0.6899 0.7150
vn 0.3287 -0.6899 0.6450
vn 0.5119 -0.6899 0.5119
vn 0.6450 -0.6899 0.3287
vn 0.7150 -0.6899 0.1132
vn 0.7150 -0.6899 -0.1132
vn 0.6450 -0.6899 -0.3287
vn 0.5119 -0.6899 -0.5119
vn 0.3287 -0.6899 -0.6450
vn 0.1132 -0.6899 -0.7150
vn -0.1132 -0.6899 -0.7150
vn -0.3287 -0.6899 -0.6450
vn -0.5119 -0.6899 -0.5119
vn -0.6450 -0.6899 -0.3287
vn -0.7150 -0.6899 -0.1133
vn -0.7150 -0.6899 0.1133
vn -0.6450 -0.6899 0.3287
vt 0.223853 0.592955
vt 0.221435 0.593001
vt 0.209350 0.593011
vt 0.206933 0.592984
vt 0.132115 0.592829
vt 0.129703 0.592772
vt 0.151418 0.592891
vt 0.149005 0.592851
vt 0.202099 0.593066
vt 0.199681 0.593036
vt 0.163482 0.592946
vt 0.161069 0.592909
vt 0.153831 0.592932
vt 0.144179 0.592907
vt 0.141766 0.592865
vt 0.134528 0.592873
vt 0.219018 0.592977
vt 0.211768 0.593038
vt 0.175547 0.592918
vt 0.173133 0.592953
vt 0.192434 0.592942
vt 0.190021 0.592910
vt 0.170720 0.592917
vt 0.168308 0.592881
vt 0.187609 0.592878
vt 0.136941 0.592848
vt 0.158657 0.592871
vt 0.156244 0.592901
vt 0.146593 0.592879
vt 0.139354 0.592822
vt 0.226269 0.592907
vt 0.216601 0.592952
vt 0.214185 0.592995
vt 0.204516 0.593024
vt 0.194849 0.592974
vt 0.185197 0.592915
vt 0.182784 0.592951
vt 0.197264 0.593005
vt 0.180371 0.592918
vt 0.177958 0.592884
vt 0.165896 0.592914
s 1
usemtl black_metal_train_wheels-01
f 33/1/33 3/2/3 43/2/43 73/1/73
f 30/3/30 11/4/11 51/4/51 70/3/70
f 34/5/34 13/6/13 53/6/53 74/5/74
f 38/7/38 15/8/15 55/8/55 78/7/78
f 1/9/1 28/10/28 68/10/68 41/9/41
f 7/11/7 40/12/40 80/12/80 47/11/47
f 6/13/6 38/7/38 78/7/78 46/13/46
f 5/14/5 36/15/36 76/15/76 45/14/45
f 4/16/4 34/5/34 74/5/74 44/16/44
f 3/2/3 32/17/32 72/17/72 43/2/43
f 2/18/2 30/3/30 70/3/70 42/18/42
f 23/19/23 8/20/8 48/20/48 63/19/63
f 10/21/10 26/22/26 66/22/66 50/21/50
f 22/23/22 17/24/17 57/24/57 62/23/62
f 26/22/26 19/25/19 59/25/59 66/22/66
f 35/26/35 4/16/4 44/16/44 75/26/75
f 16/27/16 39/28/39 79/28/79 56/27/56
f 15/8/15 37/29/37 77/29/77 55/8/55
f 14/30/14 35/26/35 75/26/75 54/30/54
f 13/31/13 33/1/33 73/1/73 53/31/53
f 12/32/12 31/33/31 71/33/71 52/32/52
f 11/4/11 29/34/29 69/34/69 51/4/51
f 27/35/27 10/21/10 50/21/50 67/35/67
f 25/36/25 9/37/9 49/37/49 65/36/65
f 28/10/28 20/38/20 60/38/60 68/10/68
f 37/29/37 5/14/5 45/14/45 77/29/77
f 9/37/9 24/39/24 64/39/64 49/37/49
f 8/20/8 22/23/22 62/23/62 48/20/48
f 32/17/32 12/32/12 52/32/52 72/17/72
f 29/34/29 1/9/1 41/9/41 69/34/69
f 36/15/36 14/30/14 54/30/54 76/15/76
f 40/12/40 16/27/16 56/27/56 80/12/80
f 19/25/19 25/36/25 65/36/65 59/25/59
f 18/40/18 23/19/23 63/19/63 58/40/58
f 17/24/17 21/41/21 61/41/61 57/24/57
f 24/39/24 18/40/18 58/40/58 64/39/64
f 39/28/39 6/13/6 46/13/46 79/28/79
f 31/33/31 2/18/2 42/18/42 71/33/71
f 21/41/21 7/11/7 47/11/47 61/41/61
f 20/38/20 27/35/27 67/35/67 60/38/60
f 113/1/113 73/1/73 43/2/43 83/2/83
f 110/3/110 70/3/70 51/4/51 91/4/91
f 114/5/114 74/5/74 53/6/53 93/6/93
f 118/7/118 78/7/78 55/8/55 95/8/95
f 81/9/81 41/9/41 68/10/68 108/10/108
f 87/11/87 47/11/47 80/12/80 120/12/120
f 86/13/86 46/13/46 78/7/78 118/7/118
f 85/14/85 45/14/45 76/15/76 116/15/116
f 84/16/84 44/16/44 74/5/74 114/5/114
f 83/2/83 43/2/43 72/17/72 112/17/112
f 82/18/82 42/18/42 70/3/70 110/3/110
f 103/19/103 63/19/63 48/20/48 88/20/88
f 90/21/90 50/21/50 66/22/66 106/22/106
f 102/23/102 62/23/62 57/24/57 97/24/97
f 106/22/106 66/22/66 59/25/59 99/25/99
f 115/26/115 75/26/75 44/16/44 84/16/84
f 96/27/96 56/27/56 79/28/79 119/28/119
f 95/8/95 55/8/55 77/29/77 117/29/117
f 94/30/94 54/30/54 75/26/75 115/26/115
f 93/31/93 53/31/53 73/1/73 113/1/113
f 92/32/92 52/32/52 71/33/71 111/33/111
f 91/4/91 51/4/51 69/34/69 109/34/109
f 107/35/107 67/35/67 50/21/50 90/21/90
f 105/36/105 65/36/65 49/37/49 89/37/89
f 108/10/108 68/10/68 60/38/60 100/38/100
f 117/29/117 77/29/77 45/14/45 85/14/85
f 89/37/89 49/37/49 64/39/64 104/39/104
f 88/20/88 48/20/48 62/23/62 102/23/102
f 112/17/112 72/17/72 52/32/52 92/32/92
f 109/34/109 69/34/69 41/9/41 81/9/81
f 116/15/116 76/15/76 54/30/54 94/30/94
f 120/12/120 80/12/80 56/27/56 96/27/96
f 99/25/99 59/25/59 65/36/65 105/36/105
f 98/40/98 58/40/58 63/19/63 103/19/103
f 97/24/97 57/24/57 61/41/61 101/41/101
f 104/39/104 64/39/64 58/40/58 98/40/98
f 119/28/119 79/28/79 46/13/46 86/13/86
f 111/33/111 71/33/71 42/18/42 82/18/82
f 101/41/101 61/41/61 47/11/47 87/11/87
f 100/38/100 60/38/60 67/35/67 107/35/107
f 30/3/30 2/18/2 31/33/31 12/32/12 32/17/32 3/2/3 33/1/33 13/31/13 34/5/34 4/16/4 35/26/35 14/30/14 36/15/36 5/14/5 37/29/37 15/8/15 38/7/38 6/13/6 39/28/39 16/27/16 40/12/40 7/11/7 21/41/21 17/24/17 22/23/22 8/20/8 23/19/23 18/40/18 24/39/24 9/37/9 25/36/25 19/25/19 26/22/26 10/21/10 27/35/27 20/38/20 28/10/28 1/9/1 29/34/29 11/4/11
f 110/3/110 91/4/91 109/34/109 81/9/81 108/10/108 100/38/100 107/35/107 90/21/90 106/22/106 99/25/99 105/36/105 89/37/89 104/39/104 98/40/98 103/19/103 88/20/88 102/23/102 97/24/97 101/41/101 87/11/87 120/12/120 96/27/96 119/28/119 86/13/86 118/7/118 95/8/95 117/29/117 85/14/85 116/15/116 94/30/94 115/26/115 84/16/84 114/5/114 93/31/93 113/1/113 83/2/83 112/17/112 92/32/92 111/33/111 82/18/82
